<svg width="41" height="54" viewBox="0 0 41 54" fill="none" xmlns="http://www.w3.org/2000/svg">
<g id="accessories_light__ed5l6ipsevqu_large.svg" clip-path="url(#clip0_2_3354)">
<path id="Vector" d="M25.0832 5.09658C24.7324 4.40428 24.17 3.84186 23.4778 3.49108C23.1291 3.31584 22.7575 3.19041 22.374 3.11848C21.98 3.04684 21.5809 3.00728 21.1806 3.00018C20.813 2.98878 20.3259 3.00018 19.939 3.00018H7.21526C7.05026 3.00018 6.88766 3.00018 6.72626 3.00068C6.11342 2.98281 5.50026 3.02225 4.89476 3.11848C4.51115 3.19048 4.13954 3.3159 3.79076 3.49108C3.09879 3.84217 2.53663 4.40451 2.18576 5.09658C2.01064 5.44525 1.88522 5.81672 1.81316 6.20018C1.75278 6.52419 1.71602 6.85215 1.70316 7.18148C1.68756 7.50668 1.68556 7.85918 1.68506 8.19428V8.63518V44.3512C1.68506 44.5001 1.68506 44.647 1.68506 44.7921C1.68506 45.1272 1.68756 45.4797 1.70316 45.805C1.71603 46.1343 1.75279 46.4623 1.81316 46.7863C1.88522 47.1698 2.01063 47.5414 2.18576 47.8902C2.53668 48.5824 3.09901 49.1448 3.79116 49.4958C4.13994 49.6709 4.51156 49.7963 4.89516 49.8683C5.2891 49.94 5.68821 49.9796 6.08856 49.9868C6.45596 49.9982 6.94326 49.9968 7.33026 49.9968C12.0513 49.9968 13.6759 50.0002 18.3968 50.0002C18.2785 49.9002 18.1768 49.7617 18.0268 49.6379C17.8295 49.4326 17.6507 49.2102 17.4927 48.9734C17.3002 48.6931 17.1497 48.3863 17.046 48.0625C16.941 47.7302 16.8599 47.3908 16.8033 47.047C16.7473 46.7495 16.7135 46.4482 16.7022 46.1457C16.6875 45.8468 16.6856 45.5233 16.6851 45.2157C16.6851 45.081 16.6851 44.9451 16.6851 44.8071V11.1934C16.6851 11.0554 16.6851 10.9196 16.6851 10.785C16.6851 10.4772 16.6875 10.1536 16.7022 9.85498C16.7139 9.55246 16.7476 9.25119 16.8033 8.95358C16.8694 8.60074 16.9848 8.25894 17.146 7.93818C17.4687 7.30138 17.986 6.78403 18.6228 6.46128C18.9436 6.30009 19.2855 6.18473 19.6385 6.11858C20.1896 6.02745 20.7481 5.98811 21.3067 6.00108C21.4678 6.00018 21.6308 6.00018 21.7964 6.00018H25.5499M12.0198 9.68098C12.0198 9.94488 12.0198 10.1286 12.0193 10.2822C12.0188 10.4332 12.0173 10.5583 12.0134 10.6732C12.0083 10.8983 11.983 11.1226 11.9377 11.3432C11.8894 11.5735 11.8095 11.796 11.7002 12.0044C11.4729 12.4355 11.1205 12.7879 10.6894 13.0152C10.481 13.1244 10.2585 13.2043 10.0283 13.2528C9.80764 13.298 9.58341 13.3233 9.35826 13.3284C9.24326 13.3324 9.11826 13.3338 8.96716 13.3342C8.81356 13.3349 8.62976 13.3348 8.36586 13.3348H7.00406C6.74016 13.3348 6.55636 13.3348 6.40276 13.3342C6.25166 13.3342 6.12666 13.3324 6.01166 13.3284C5.78651 13.3233 5.56228 13.298 5.34166 13.2528C5.11142 13.2043 4.88896 13.1244 4.68056 13.0152C4.2494 12.7879 3.89705 12.4355 3.66976 12.0044C3.56042 11.796 3.48049 11.5735 3.43226 11.3432C3.38696 11.1226 3.36162 10.8983 3.35656 10.6732C3.35266 10.5583 3.35116 10.4332 3.35066 10.2822C3.35016 10.1285 3.35016 9.94488 3.35016 9.68098V8.31938C3.35016 8.05538 3.35016 7.87178 3.35066 7.71818C3.35066 7.56698 3.35266 7.44188 3.35656 7.32708C3.36163 7.10193 3.38696 6.87769 3.43226 6.65708C3.48064 6.42681 3.56056 6.20431 3.66976 5.99588C3.89696 5.56469 4.24915 5.21222 4.68016 4.98468C4.88856 4.87548 5.11102 4.79553 5.34126 4.74708C5.56188 4.70187 5.78611 4.67657 6.01126 4.67148C6.12626 4.66748 6.25126 4.66618 6.40236 4.66558H7.00366H8.36546H8.96676C9.11786 4.66618 9.24286 4.66748 9.35766 4.67148C9.58301 4.67653 9.80744 4.70183 10.0283 4.74708C10.2585 4.79553 10.481 4.87548 10.6894 4.98468C11.1205 5.21205 11.4728 5.56438 11.7002 5.99548C11.8095 6.20386 11.8894 6.42637 11.9377 6.65668C11.983 6.87729 12.0083 7.10153 12.0134 7.32668C12.0173 7.44158 12.0188 7.56668 12.0193 7.71778C12.0198 7.87148 12.0198 8.05508 12.0198 8.31898V9.68098ZM36.6848 24.3082V45.6921C36.6503 46.0693 36.469 46.4178 36.1799 46.6625C35.8908 46.9073 35.5171 47.0285 35.1394 47.0002H22.2302C21.8525 47.0285 21.4787 46.9073 21.1896 46.6625C20.9005 46.4178 20.7192 46.0693 20.6848 45.6921V24.3133C20.7193 23.9347 20.9012 23.5848 21.1914 23.3392C21.4816 23.0935 21.8566 22.9718 22.2358 23.0002H35.1396C35.5172 22.9718 35.8909 23.0931 36.18 23.3378C36.4691 23.5825 36.6504 23.931 36.6848 24.3082ZM39.6848 11.8216C39.6843 11.5138 39.6826 11.1902 39.6682 10.8916C39.6562 10.5891 39.6223 10.2878 39.5668 9.99018C39.5006 9.63734 39.3853 9.29554 39.2241 8.97478C38.9012 8.33814 38.3839 7.82088 37.7473 7.49798C37.4264 7.33669 37.0845 7.22129 36.7316 7.15518C36.3692 7.08917 36.0022 7.05271 35.634 7.04618C35.2958 7.03618 34.8476 7.03698 34.4916 7.03698H22.7716C22.606 7.03698 22.443 7.03698 22.2816 7.03778C21.723 7.02473 21.1645 7.06404 20.6134 7.15518C20.2604 7.22132 19.9185 7.33671 19.5977 7.49798C18.9608 7.82058 18.4435 8.33784 18.1208 8.97458C17.9595 9.2954 17.8442 9.63727 17.7781 9.99018C17.7224 10.2878 17.6887 10.5891 17.677 10.8916C17.6623 11.1904 17.6855 11.514 17.685 11.8216V12.2301V44.8069V45.2155C17.685 45.5233 17.6623 45.8468 17.677 46.1455C17.6887 46.448 17.7224 46.7492 17.7781 47.0468C17.8442 47.3997 17.9595 47.7415 18.1208 48.0623C18.4435 48.6991 18.9608 49.2164 19.5976 49.5392C19.9185 49.7003 20.2603 49.8156 20.6133 49.8819C20.9757 49.9479 21.3428 49.9844 21.7112 49.9908C22.0491 50.0013 22.4973 49.9999 22.8533 49.9999H34.5733H35.0633C35.6217 50.0128 36.1801 49.9735 36.7312 49.8824C37.0841 49.8162 37.426 49.7008 37.7469 49.5397C38.3835 49.2167 38.9007 48.6994 39.2237 48.0628C39.3849 47.742 39.5002 47.4002 39.5664 47.0473C39.6219 46.7497 39.6558 46.4485 39.6678 46.146C39.6822 45.8471 39.6839 45.5236 39.6844 45.216C39.6844 45.0813 39.6844 44.9454 39.6844 44.8074V12.2302C39.6848 12.0921 39.6848 11.9563 39.6848 11.8216ZM19.3491 11.705C19.3498 11.5544 19.351 11.4297 19.3549 11.315C19.3599 11.0905 19.385 10.867 19.4301 10.6471C19.4785 10.4177 19.5583 10.196 19.6672 9.98828C19.8934 9.55884 20.2443 9.20794 20.6738 8.98178C20.8814 8.87296 21.1031 8.79327 21.3325 8.74498C21.5524 8.69993 21.776 8.67473 22.0005 8.66968C22.1147 8.66578 22.2393 8.66448 22.3899 8.66388C22.543 8.66328 22.7261 8.66388 22.989 8.66388H24.3806H24.8359C24.9824 8.66388 25.1443 8.66388 25.2913 8.66758C25.5951 8.66838 25.8977 8.70721 26.1919 8.78318C26.5265 8.87295 26.838 9.03365 27.1051 9.25438C27.3722 9.47511 27.5887 9.75071 27.74 10.0625C27.8821 10.3634 27.9689 10.6874 27.9961 11.0191C28.0115 11.1772 28.0171 11.3355 28.0193 11.5191C28.0215 11.6869 28.021 11.9486 28.021 12.3042V13.6969C28.021 13.9597 28.021 14.1427 28.0205 14.2957C28.0198 14.4462 28.0185 14.5709 28.0146 14.6852C28.0095 14.9096 27.9842 15.1332 27.9392 15.3531C27.891 15.5825 27.8114 15.8042 27.7026 16.0119C27.476 16.4414 27.125 16.7924 26.6955 17.0189C26.4878 17.1277 26.2662 17.2073 26.0369 17.2556C25.8169 17.3006 25.5933 17.3258 25.3689 17.3308C25.2546 17.3348 25.1299 17.3362 24.9795 17.3367C24.8262 17.3373 24.6433 17.3367 24.3804 17.3367H22.989C22.6333 17.3367 22.3716 17.3367 22.2039 17.335C22.0203 17.3327 21.8621 17.3271 21.7039 17.3118C21.3722 17.2848 21.0481 17.198 20.7473 17.0556C20.5051 16.9383 20.2843 16.7814 20.094 16.5912C19.7945 16.2906 19.5787 15.917 19.468 15.5075C19.392 15.2133 19.3532 14.9107 19.3523 14.6069C19.3486 14.46 19.3486 14.2981 19.3486 14.1515C19.3486 13.9999 19.3486 13.8486 19.3486 13.6965V12.3038C19.3486 12.0409 19.3484 11.8579 19.3489 11.705H19.3491ZM37.6848 45.6921C37.6518 46.3351 37.3655 46.939 36.8885 47.3715C36.4115 47.804 35.7826 48.0301 35.1394 48.0002H22.2302C21.5869 48.0301 20.9581 47.804 20.4811 47.3715C20.0041 46.939 19.7177 46.3351 19.6848 45.6921V24.3133C19.7178 23.6688 20.0048 23.0637 20.4828 22.6302C20.9609 22.1967 21.5911 21.9702 22.2358 22.0002H35.1396C35.7827 21.9703 36.4116 22.1963 36.8885 22.6289C37.3655 23.0614 37.6518 23.6652 37.6848 24.3082V45.6921Z" fill="#1D1D1F"/>
</g>
<defs>
<clipPath id="clip0_2_3354">
<rect width="40" height="54" fill="white" transform="translate(0.68457)"/>
</clipPath>
</defs>
</svg>
