<svg width="40" height="54" viewBox="0 0 40 54" fill="none" xmlns="http://www.w3.org/2000/svg">
<g id="airpods_light__8oj157p2476a_large.svg" clip-path="url(#clip0_2_3341)">
<path id="Vector" d="M27.8424 39.8356C28.6934 40.0616 29.5713 40.1703 30.4517 40.1589V48.5867C30.4249 48.9427 30.2753 49.2782 30.0284 49.536C29.7815 49.7937 29.4528 49.9577 29.0983 49.9998H27.5501C27.1519 49.9563 26.7845 49.7654 26.52 49.4646C26.2555 49.1637 26.1132 48.7748 26.121 48.3743V39.1843C26.6802 39.4383 27.2552 39.6558 27.8424 39.8356ZM26.121 38.0885C24.8668 37.4492 23.7436 36.5804 22.8096 35.5271C21.8707 34.5042 21.3048 33.1941 21.2035 31.8092C21.1611 30.6334 21.4384 29.468 22.0058 28.4372C22.4902 27.6459 23.1563 26.9816 23.949 26.4995C24.7416 26.0173 25.6379 25.7313 26.5633 25.6651C26.6093 25.6651 26.6556 25.6659 26.7021 25.6674C28.094 25.7134 31.4573 26.0262 34.478 30.0264C34.3147 30.0326 34.1518 30.0471 33.9899 30.0699C33.1795 30.2063 32.407 30.5123 31.7231 30.9679C31.0392 31.4236 30.4593 32.0186 30.0214 32.714C29.1829 34.0085 28.7525 35.5249 28.786 37.0668C28.794 37.2947 28.8227 37.5213 28.8719 37.7439C28.9843 38.2344 29.1876 38.6996 29.4712 39.1152C29.0186 39.0819 28.5705 39.0028 28.1338 38.879C27.4422 38.6717 26.7689 38.4073 26.121 38.0885ZM27.1866 31.7555C27.3797 31.8881 27.6126 31.9501 27.846 31.931C28.0795 31.9119 28.2992 31.8129 28.4681 31.6506L28.5261 31.5782C28.6323 31.4653 28.7104 31.3288 28.7538 31.1799C28.7972 31.0311 28.8049 30.874 28.7761 30.7217C28.7473 30.5693 28.6828 30.4259 28.5881 30.3032C28.4933 30.1804 28.3709 30.0818 28.2307 30.0154L26.7207 29.0436C26.5103 28.8969 26.2566 28.8251 26.0005 28.84C25.7443 28.8548 25.5006 28.9553 25.3085 29.1253L25.2236 29.2077C25.1356 29.3154 25.0718 29.4407 25.0364 29.5752C25.0011 29.7096 24.9951 29.8501 25.0188 29.9871C25.0425 30.1241 25.0954 30.2544 25.1739 30.3692C25.2523 30.484 25.3546 30.5805 25.4736 30.6523L27.1866 31.7555ZM38.9211 35.951C38.8823 36.1529 38.8298 36.352 38.764 36.5467C38.6033 37.0089 38.3897 37.451 38.1276 37.8641C37.813 38.4193 37.412 38.9208 36.9396 39.3498C36.5508 39.7364 36.0872 40.0397 35.5772 40.2411C35.0673 40.4425 34.5216 40.5379 33.9735 40.5213C33.3442 40.5227 32.7193 40.4162 32.1259 40.2064C32.0517 40.1717 31.9936 40.1374 31.9238 40.1028C31.642 39.9655 31.369 39.8108 31.1063 39.6396C30.888 39.4975 30.6827 39.3365 30.4925 39.1584C30.4781 39.1447 30.4657 39.1309 30.4518 39.1171C30.0208 38.6949 29.7246 38.1545 29.6004 37.5641C29.5699 37.4288 29.5495 37.2914 29.5396 37.153C29.383 35.3309 30.4773 31.4296 34.1162 30.8089C34.3445 30.7688 34.5757 30.748 34.8075 30.7468C34.8749 30.7468 34.9465 30.7579 35.0157 30.7621C35.281 30.7741 35.5434 30.822 35.7957 30.9045C35.8431 30.921 35.8846 30.9479 35.9311 30.9657C36.1788 31.0582 36.4186 31.1705 36.6481 31.3015C37.3875 31.7278 37.9982 32.3456 38.4159 33.0898C38.6802 33.5785 38.8602 34.1082 38.9482 34.6566C39.0082 35.0868 38.9991 35.5238 38.9211 35.951ZM37.6174 35.171C37.4687 34.6823 36.9056 34.693 36.555 35.171L34.8126 37.5724C34.5459 38.0717 34.7477 38.6774 35.2152 38.6348H35.2163C35.9504 38.416 36.5881 37.9537 37.0245 37.3242C37.4609 36.6947 37.67 35.9354 37.6174 35.1712V35.171ZM10.1674 40.1587V48.5865C10.1942 48.9425 10.3438 49.2781 10.5907 49.5359C10.8376 49.7937 11.1664 49.9577 11.5209 49.9998H13.069C13.4672 49.9564 13.8347 49.7654 14.0992 49.4646C14.3637 49.1637 14.506 48.7748 14.4981 48.3743V39.1843C13.939 39.4381 13.364 39.6555 12.7768 39.8352C11.9258 40.0613 11.048 40.1702 10.1675 40.1589L10.1674 40.1587ZM18.6131 28.437C19.1805 29.4678 19.4578 30.6332 19.4154 31.809C19.3143 33.1939 18.7485 34.5041 17.8096 35.5271C16.8757 36.5805 15.7525 37.4493 14.4983 38.0885C13.8504 38.4072 13.1771 38.6714 12.4854 38.8785C12.0479 39.0024 11.5989 39.0816 11.1454 39.1148C11.4306 38.6997 11.6348 38.2344 11.7471 37.7434C11.7963 37.5208 11.825 37.2942 11.833 37.0663C11.8664 35.5246 11.4361 34.0083 10.5976 32.714C10.1598 32.0187 9.57995 31.4237 8.89614 30.968C8.21233 30.5123 7.43995 30.2062 6.62962 30.0698C6.46777 30.0471 6.30486 30.0325 6.14152 30.0263C9.16222 26.0263 12.5255 25.7133 13.9174 25.6673C13.9641 25.6658 14.01 25.665 14.0562 25.665C14.9815 25.7313 15.8777 26.0174 16.6703 26.4996C17.4628 26.9817 18.1289 27.646 18.6132 28.4372L18.6131 28.437ZM15.3958 29.207L15.3109 29.1246C15.1188 28.9546 14.8751 28.8541 14.619 28.8393C14.3628 28.8244 14.1092 28.8962 13.8987 29.0429L12.3887 30.0147C12.2486 30.0812 12.1262 30.1797 12.0314 30.3025C11.9366 30.4252 11.8722 30.5686 11.8434 30.721C11.8146 30.8733 11.8222 31.0303 11.8656 31.1792C11.909 31.3281 11.987 31.4646 12.0932 31.5775L12.1513 31.6499C12.3203 31.8122 12.54 31.9112 12.7734 31.9303C13.0069 31.9494 13.2398 31.8874 13.4328 31.7548L15.1466 30.6516C15.2655 30.5798 15.3676 30.4832 15.4459 30.3684C15.5243 30.2537 15.577 30.1235 15.6007 29.9866C15.6243 29.8497 15.6183 29.7093 15.5829 29.5749C15.5476 29.4405 15.4838 29.3153 15.3959 29.2077L15.3958 29.207ZM10.1674 39.117C10.1535 39.1308 10.1411 39.1445 10.1267 39.1582C9.9366 39.3363 9.73121 39.4973 9.51292 39.6394C9.25024 39.8106 8.97718 39.9653 8.69532 40.1026C8.62532 40.1372 8.56752 40.1715 8.49332 40.2062C7.89997 40.416 7.27506 40.5225 6.64572 40.5211C6.09768 40.5377 5.55201 40.4423 5.04204 40.241C4.53207 40.0396 4.0685 39.7364 3.67962 39.3498C3.20719 38.9207 2.80613 38.4191 2.49152 37.8638C2.22941 37.4507 2.01587 37.0086 1.85512 36.5464C1.7893 36.3517 1.73681 36.1526 1.69802 35.9507C1.62006 35.5234 1.61091 35.0864 1.67092 34.6562C1.75905 34.1079 1.93904 33.5783 2.20332 33.0898C2.62116 32.3456 3.23202 31.7279 3.97152 31.3018C4.20089 31.1709 4.44047 31.0587 4.68792 30.9663C4.73472 30.9484 4.77642 30.9214 4.82392 30.9048C5.07629 30.8223 5.33868 30.7744 5.60392 30.7624C5.67312 30.7582 5.74472 30.7471 5.81212 30.7471C6.04389 30.7483 6.27515 30.7691 6.50342 30.8092C10.1423 31.4299 11.2366 35.3312 11.08 37.1533C11.0701 37.2917 11.0498 37.4291 11.0192 37.5644C10.895 38.1549 10.5986 38.6953 10.1675 39.1175L10.1674 39.117ZM5.80662 37.5724L4.06422 35.1712C3.71362 34.6932 3.15052 34.6825 3.00182 35.1712C2.95141 35.5458 2.97619 35.9266 3.07469 36.2915C3.1732 36.6563 3.34346 36.9979 3.57552 37.2961C3.77219 37.6325 4.03588 37.9249 4.35023 38.1552C4.66457 38.3855 5.02288 38.5488 5.40292 38.6348H5.40392C5.87152 38.6774 6.07332 38.0717 5.80662 37.5724Z" fill="#1D1D1F"/>
</g>
<defs>
<clipPath id="clip0_2_3341">
<rect width="39" height="54" fill="white" transform="translate(0.80957)"/>
</clipPath>
</defs>
</svg>
