<svg width="30" height="54" viewBox="0 0 30 54" fill="none" xmlns="http://www.w3.org/2000/svg">
<g id="airtag_light__cb2bmnv6aoeu_large.svg" clip-path="url(#clip0_2_3347)">
<path id="Vector" d="M14.5127 22.5C11.7932 22.5 9.13479 23.3064 6.87361 24.8173C4.61244 26.3282 2.85006 28.4756 1.80936 30.9881C0.768653 33.5006 0.496357 36.2653 1.0269 38.9325C1.55745 41.5997 2.86701 44.0497 4.78998 45.9727C6.71296 47.8957 9.16297 49.2053 11.8302 49.7358C14.4974 50.2663 17.2621 49.994 19.7746 48.9533C22.2871 47.9126 24.4345 46.1503 25.9454 43.8891C27.4563 41.6279 28.2627 38.9695 28.2627 36.25C28.2627 32.6033 26.814 29.1059 24.2354 26.5273C21.6568 23.9487 18.1594 22.5 14.5127 22.5ZM14.5127 48.35C12.1195 48.35 9.78014 47.6403 7.7903 46.3108C5.80047 44.9812 4.24958 43.0915 3.33376 40.8805C2.41794 38.6695 2.17832 36.2366 2.6452 33.8894C3.11208 31.5422 4.26449 29.3862 5.95671 27.694C7.64892 26.0018 9.80494 24.8494 12.1521 24.3825C14.4993 23.9156 16.9322 24.1552 19.1432 25.0711C21.3542 25.9869 23.2439 27.5378 24.5735 29.5276C25.903 31.5174 26.6127 33.8568 26.6127 36.25C26.609 39.458 25.333 42.5335 23.0646 44.8019C20.7962 47.0703 17.7207 48.3463 14.5127 48.35ZM14.5127 25.25C12.3371 25.25 10.2104 25.8951 8.40143 27.1038C6.59249 28.3125 5.18259 30.0305 4.35003 32.0405C3.51746 34.0505 3.29963 36.2622 3.72406 38.396C4.1485 40.5298 5.19615 42.4898 6.73453 44.0282C8.2729 45.5666 10.2329 46.6142 12.3667 47.0386C14.5005 47.4631 16.7122 47.2452 18.7222 46.4127C20.7322 45.5801 22.4502 44.1702 23.6589 42.3613C24.8676 40.5523 25.5127 38.4256 25.5127 36.25C25.5127 34.8055 25.2282 33.3751 24.6754 32.0405C24.1226 30.7059 23.3123 29.4933 22.2909 28.4718C21.2694 27.4504 20.0568 26.6401 18.7222 26.0873C17.3876 25.5345 15.9572 25.25 14.5127 25.25ZM14.9867 31.506C15.1523 31.3037 15.3588 31.1386 15.5927 31.0216C15.8265 30.9046 16.0825 30.8383 16.3437 30.827C16.365 31.0896 16.3331 31.3538 16.2499 31.6038C16.1667 31.8538 16.034 32.0845 15.8597 32.282C15.7081 32.4993 15.5045 32.6752 15.2675 32.7936C15.0304 32.9121 14.7675 32.9693 14.5027 32.96C14.478 32.6973 14.5083 32.4324 14.5916 32.182C14.6749 31.9317 14.8095 31.7015 14.9867 31.506ZM17.6407 38.984C17.2647 39.558 16.8337 40.136 16.1987 40.136C15.5987 40.136 15.3907 39.748 14.6937 39.748C13.9447 39.748 13.7177 40.136 13.1447 40.136C12.5097 40.136 12.0757 39.527 11.6787 38.959C11.0828 38.0579 10.7509 37.0079 10.7207 35.928C10.6939 35.3453 10.8282 34.7665 11.1087 34.255C11.3048 33.9079 11.5853 33.616 11.9242 33.4062C12.2632 33.1965 12.6496 33.0757 13.0477 33.055C13.6567 33.034 14.1787 33.491 14.5477 33.491C15.1331 33.2992 15.7326 33.1534 16.3407 33.055C16.6785 33.0538 17.0113 33.1375 17.3083 33.2984C17.6054 33.4593 17.8572 33.6923 18.0407 33.976C17.7346 34.1693 17.4819 34.4362 17.3056 34.7524C17.1293 35.0686 17.0351 35.424 17.0317 35.786C17.0423 36.1847 17.1654 36.5722 17.387 36.9039C17.6085 37.2355 17.9194 37.4976 18.2837 37.66C18.1391 38.1319 17.9222 38.5786 17.6407 38.984Z" fill="#1D1D1F"/>
</g>
<defs>
<clipPath id="clip0_2_3347">
<rect width="29" height="54" fill="white" transform="translate(0.0126953)"/>
</clipPath>
</defs>
</svg>
