<svg width="39" height="54" viewBox="0 0 39 54" fill="none" xmlns="http://www.w3.org/2000/svg">
<g id="iphone_14_light__fwknsxkf80uq_large.svg" clip-path="url(#clip0_2_3309)">
<path id="Vector" d="M15.1055 49H6.2476H5.9197C5.48086 49.0109 5.04195 48.9818 4.6084 48.913C4.38263 48.8713 4.16383 48.7981 3.9584 48.6955C3.57454 48.5012 3.26274 48.1894 3.0684 47.8055C2.96579 47.6001 2.89257 47.3813 2.8509 47.1555C2.80998 46.9349 2.78531 46.7116 2.7771 46.4874C2.7647 46.2339 2.7637 45.9596 2.7632 45.6984V11.2191C2.7632 10.9581 2.7647 10.6837 2.7771 10.4291C2.78538 10.2057 2.80994 9.98306 2.8506 9.76314C2.89239 9.53715 2.96571 9.31815 3.0684 9.11254C3.26261 8.72859 3.57444 8.41676 3.9584 8.22254C4.16396 8.11977 4.38298 8.04649 4.609 8.00484C4.88158 7.95567 5.15774 7.92891 5.4347 7.92484C5.6666 7.91764 5.9581 7.91714 6.2225 7.91714H6.6295H7.6426C7.68203 7.91708 7.7211 7.92479 7.75755 7.93984C7.79401 7.95488 7.82714 7.97697 7.85505 8.00484C7.88296 8.0327 7.9051 8.06579 7.92021 8.10222C7.93532 8.13865 7.9431 8.17771 7.9431 8.21714V8.60714C7.94355 8.87264 8.04943 9.12709 8.23747 9.31453C8.42551 9.50197 8.68029 9.60704 8.9458 9.60664H14.2639V7.83534V7.43644C14.2639 7.26464 14.2703 7.17474 14.2739 7.00014H6.4295L6.2219 7.00004C5.9473 7.00004 5.6441 7.00074 5.4031 7.00824C5.07434 6.98706 4.74442 6.99221 4.4165 7.02364C4.09938 7.08311 3.79219 7.18679 3.5039 7.33164C2.93168 7.6217 2.46681 8.0866 2.1768 8.65884C2.03197 8.94712 1.92826 9.25428 1.8687 9.57134C1.81891 9.8388 1.78853 10.1095 1.7778 10.3813C1.7647 10.6498 1.7632 10.9407 1.7627 11.2173V11.5843V45.3331V45.7003C1.7627 45.9767 1.7647 46.2676 1.7778 46.5362C1.78853 46.8081 1.81891 47.0788 1.8687 47.3462C1.92824 47.6633 2.03195 47.9705 2.1768 48.2588C2.46697 48.831 2.9318 49.2958 3.5039 49.586C3.79222 49.7308 4.09941 49.8345 4.4165 49.894C4.91176 49.976 5.41362 50.0115 5.9155 50C6.02543 50 6.13613 50 6.2476 50H16.0476C15.6745 49.7277 15.3551 49.3887 15.1054 49H15.1055ZM10.1414 7.41944C10.1414 7.38422 10.1555 7.35046 10.1804 7.32556C10.2053 7.30067 10.2391 7.28667 10.2743 7.28664H13.3587C13.3939 7.28667 13.4277 7.30066 13.4527 7.32555C13.4776 7.35044 13.4917 7.3842 13.4918 7.41944V7.44004C13.4917 7.4753 13.4777 7.50909 13.4527 7.534C13.4278 7.55891 13.394 7.57292 13.3587 7.57294H10.2743C10.2391 7.57292 10.2053 7.55891 10.1804 7.53399C10.1554 7.50907 10.1414 7.47528 10.1414 7.44004V7.41944ZM8.60549 8.30004C8.64991 8.22652 8.71383 8.16673 8.79015 8.12731C8.86648 8.0879 8.95223 8.07039 9.0379 8.07674C9.15039 8.08611 9.25526 8.13741 9.33171 8.22048C9.40815 8.30354 9.45058 8.41231 9.45058 8.52519C9.45058 8.63808 9.40815 8.74685 9.33171 8.82991C9.25526 8.91298 9.15039 8.96428 9.0379 8.97364C8.95556 8.98156 8.87263 8.96663 8.79823 8.93049C8.72382 8.89436 8.66081 8.83841 8.61613 8.7688C8.57145 8.69919 8.54681 8.61861 8.54494 8.53592C8.54306 8.45322 8.56401 8.37161 8.60549 8.30004ZM37.7626 7.68804C37.7621 7.38624 37.7604 7.06874 37.7462 6.77574C37.7346 6.4791 37.7015 6.18369 37.6471 5.89184C37.5823 5.54633 37.4693 5.21163 37.3114 4.89754C36.9955 4.27392 36.4889 3.76733 35.8653 3.45144C35.5512 3.29359 35.2165 3.18059 34.871 3.11574C34.326 3.026 33.7737 2.98743 33.2215 3.00054C33.0763 3.00054 32.9298 3.00054 32.7815 3.00054H20.8478H20.6212C20.3222 3.00054 19.9918 3.00144 19.7294 3.00954C19.3688 3.01598 19.0093 3.05166 18.6544 3.11624C18.3089 3.18105 17.9742 3.29405 17.6601 3.45194C17.0365 3.76783 16.5299 4.27442 16.214 4.89804C16.0561 5.21213 15.9431 5.54683 15.8783 5.89234C15.8238 6.18417 15.7907 6.47959 15.7792 6.77624C15.7731 6.90204 15.7746 7.03624 15.7721 7.16794C15.7692 7.34284 15.7631 7.51634 15.7628 7.68854V8.08574V44.9157C15.7628 45.0499 15.7628 45.1823 15.7628 45.3129C15.7633 45.6147 15.765 45.9322 15.7792 46.2251C15.7907 46.5219 15.8238 46.8173 15.8783 47.1092C15.9431 47.4547 16.0561 47.7894 16.214 48.1034C16.3711 48.4132 16.5762 48.6961 16.8217 48.9418C16.8493 48.9693 16.8817 48.9908 16.9103 49.0173C17.1342 49.2289 17.3867 49.4082 17.6603 49.5497C17.9744 49.7075 18.3091 49.8205 18.6546 49.8852C18.9733 49.9426 19.2958 49.9757 19.6195 49.9842C19.8465 49.9935 20.0746 49.9994 20.3041 50.0003C20.4112 50.0008 20.5191 50.0008 20.628 50.0003H32.678H32.9058C33.2046 50.0003 33.5342 49.9994 33.7964 49.9913C34.157 49.985 34.5165 49.9493 34.8714 49.8846C35.2169 49.8198 35.5516 49.7069 35.8657 49.5491C36.4892 49.233 36.9958 48.7264 37.3118 48.1028C37.4697 47.7888 37.5827 47.4541 37.6475 47.1086C37.7019 46.8167 37.735 46.5213 37.7466 46.2245C37.7608 45.9316 37.7625 45.6145 37.763 45.3123C37.763 45.1815 37.763 45.0491 37.763 44.9151V8.08524C37.7626 7.95104 37.7626 7.81894 37.7626 7.68804ZM25.0338 3.59284C25.0338 3.55763 25.0478 3.52387 25.0727 3.49897C25.0976 3.47407 25.1314 3.46007 25.1666 3.46004H28.2511C28.2863 3.4601 28.32 3.4741 28.3449 3.499C28.3698 3.52389 28.3838 3.55764 28.3839 3.59284V3.61364C28.3839 3.64887 28.3699 3.68264 28.345 3.70755C28.3201 3.73247 28.2863 3.74649 28.2511 3.74654H25.1666C25.1314 3.74652 25.0976 3.7325 25.0727 3.70758C25.0478 3.68266 25.0338 3.64887 25.0338 3.61364V3.59284ZM23.5477 4.43054C23.589 4.36222 23.6471 4.30566 23.7166 4.26628C23.786 4.22689 23.8644 4.20602 23.9442 4.20564L23.9803 4.20724C24.0928 4.21661 24.1977 4.26791 24.2741 4.35097C24.3505 4.43404 24.393 4.54281 24.393 4.65569C24.393 4.76858 24.3505 4.87735 24.2741 4.96041C24.1977 5.04348 24.0928 5.09478 23.9803 5.10414L23.9446 5.10574C23.865 5.10701 23.7865 5.08712 23.717 5.04812C23.6476 5.00912 23.5898 4.95241 23.5495 4.88376C23.5091 4.81511 23.4877 4.73698 23.4875 4.65736C23.4872 4.57774 23.508 4.49947 23.5479 4.43054H23.5477ZM36.7626 44.9148V45.3104C36.7626 45.5967 36.7594 45.8979 36.746 46.1764C36.7368 46.4248 36.7096 46.6721 36.6645 46.9164C36.6174 47.1708 36.5347 47.4173 36.4188 47.6486C36.1989 48.0836 35.8457 48.4368 35.4108 48.6567C35.1796 48.7724 34.9332 48.855 34.6789 48.9018C34.3771 48.9564 34.0714 48.9861 33.7648 48.9905C33.5119 48.9983 33.1935 49.0005 32.9048 49.0005H20.6278L20.3075 49C20.0666 48.9991 19.8313 48.9933 19.6017 48.9827C19.3483 48.9739 19.0958 48.9469 18.8463 48.9017C18.592 48.8548 18.3457 48.7724 18.1144 48.6567C17.6794 48.4365 17.3262 48.0832 17.1061 47.6481C16.9903 47.4168 16.9077 47.1703 16.8607 46.9158C16.8154 46.6715 16.7882 46.4242 16.7792 46.1758C16.7658 45.8979 16.7626 45.5967 16.7626 45.31V44.8714V8.08524V7.69004C16.7626 7.51744 16.7699 7.34304 16.7731 7.16784C16.7755 7.05244 16.7738 6.93454 16.7792 6.82394C16.7882 6.5756 16.8155 6.32825 16.861 6.08394C16.9078 5.82949 16.9904 5.58294 17.1064 5.35164C17.3262 4.91666 17.6794 4.56343 18.1144 4.34364C18.3457 4.22798 18.592 4.14544 18.8463 4.09844C19.1481 4.04404 19.4538 4.01441 19.7604 4.00984C20.0138 4.00204 20.3324 4.00134 20.6212 4.00134H20.7387H21.5895V4.00194H22.5338C22.5733 4.00184 22.6124 4.00952 22.6488 4.02455C22.6853 4.03958 22.7185 4.06166 22.7464 4.08953C22.7744 4.1174 22.7966 4.1505 22.8117 4.18695C22.8268 4.2234 22.8346 4.26248 22.8346 4.30194V4.69194C22.8347 4.82343 22.8607 4.95361 22.9112 5.07504C22.9616 5.19647 23.0355 5.30677 23.1286 5.39964C23.2217 5.4925 23.3322 5.56612 23.4537 5.61627C23.5753 5.66643 23.7055 5.69214 23.837 5.69194H29.637C29.9003 5.69231 30.1532 5.5889 30.3409 5.40412C30.5285 5.21934 30.6358 4.96807 30.6395 4.70474L30.6444 4.29894C30.6456 4.21997 30.6777 4.14462 30.734 4.08919C30.7903 4.03376 30.8661 4.00271 30.9451 4.00274H31.9618V4.00124H32.7809H33.2174C33.7065 3.98908 34.1957 4.02141 34.6789 4.09784C34.9332 4.14478 35.1796 4.22733 35.4108 4.34304C35.8458 4.56309 36.1991 4.91646 36.4191 5.35154C36.5349 5.58265 36.6174 5.82895 36.6642 6.08314C36.7095 6.32748 36.7369 6.57481 36.746 6.82314C36.7594 7.10114 36.7624 7.40244 36.7626 7.68904V8.12764V44.9148Z" fill="#1D1D1F"/>
</g>
<defs>
<clipPath id="clip0_2_3309">
<rect width="38" height="54" fill="white" transform="translate(0.762695)"/>
</clipPath>
</defs>
</svg>
