<svg width="46" height="54" viewBox="0 0 46 54" fill="none" xmlns="http://www.w3.org/2000/svg">
<g id="iphone_compare_light__f4jj7brpbvm2_large.svg" clip-path="url(#clip0_2_3335)">
<path id="Vector" d="M15.1533 13H6.15332C4.69517 13.0017 3.29723 13.5818 2.26616 14.6128C1.23509 15.6439 0.655067 17.0418 0.65332 18.5L0.65332 44.5C0.655146 45.9581 1.2352 47.356 2.26625 48.3871C3.2973 49.4181 4.69519 49.9982 6.15332 50H15.1533C16.6115 49.9982 18.0093 49.4181 19.0404 48.3871C20.0714 47.356 20.6515 45.9581 20.6533 44.5V18.5C20.6516 17.0418 20.0715 15.6439 19.0405 14.6128C18.0094 13.5818 16.6115 13.0017 15.1533 13ZM18.6533 44.5C18.6522 45.4279 18.2831 46.3175 17.627 46.9736C16.9708 47.6298 16.0812 47.9989 15.1533 48H6.15332C5.2254 47.9989 4.33581 47.6298 3.67967 46.9736C3.02354 46.3175 2.65443 45.4279 2.65332 44.5V18.5C2.65443 17.5721 3.02354 16.6825 3.67967 16.0264C4.33581 15.3702 5.2254 15.0011 6.15332 15H15.1533C16.0812 15.0011 16.9708 15.3702 17.627 16.0264C18.2831 16.6825 18.6522 17.5721 18.6533 18.5V44.5ZM44.6533 36.5H45.6533V42.5H44.6533V36.5ZM32.6533 13H38.6533V14H32.6533V13ZM44.6533 28.5H45.6533V34.5H44.6533V28.5ZM32.6533 49H38.6533V50H32.6533V49ZM26.6533 34.5H25.6533V28.5H26.6533V34.5ZM26.6533 26.5H25.6533V20.5H26.6533V26.5ZM26.6533 42.5H25.6533V36.5H26.6533V42.5ZM40.6533 14.05V13.0253C42.0189 13.1512 43.2882 13.7822 44.213 14.7948C45.1378 15.8074 45.6514 17.1287 45.6533 18.5H44.6533C44.6512 17.396 44.242 16.3315 43.5039 15.5104C42.7659 14.6893 41.7509 14.1693 40.6533 14.05ZM44.6533 44.5H45.6533C45.6514 45.8713 45.1378 47.1926 44.213 48.2052C43.2882 49.2178 42.0189 49.8488 40.6533 49.9747V48.95C41.7509 48.8307 42.7659 48.3107 43.5039 47.4896C44.242 46.6685 44.6512 45.604 44.6533 44.5ZM30.6533 13.0253V14.05C29.5557 14.1693 28.5408 14.6893 27.8027 15.5104C27.0646 16.3315 26.6554 17.396 26.6533 18.5H25.6533C25.6552 17.1287 26.1688 15.8074 27.0936 14.7948C28.0184 13.7822 29.2878 13.1512 30.6533 13.0253ZM30.6533 48.95V49.9751C29.2877 49.8492 28.0183 49.2181 27.0935 48.2054C26.1687 47.1928 25.6551 45.8714 25.6533 44.5H26.6533C26.6554 45.604 27.0646 46.6685 27.8027 47.4896C28.5408 48.3107 29.5557 48.8307 30.6533 48.95ZM44.6533 20.5H45.6533V26.5H44.6533V20.5Z" fill="#1D1D1F"/>
</g>
<defs>
<clipPath id="clip0_2_3335">
<rect width="45" height="54" fill="white" transform="translate(0.65332)"/>
</clipPath>
</defs>
</svg>
