<svg width="23" height="54" viewBox="0 0 23 54" fill="none" xmlns="http://www.w3.org/2000/svg">
<g id="iphone_12_light__cxh2ll1zwpw2_large.svg" clip-path="url(#clip0_2_3329)">
<path id="Vector" d="M19.6377 6H3.6377C2.84205 6 2.07898 6.31607 1.51637 6.87868C0.953766 7.44129 0.637695 8.20435 0.637695 9L0.637695 47C0.637695 47.7957 0.953766 48.5587 1.51637 49.1213C2.07898 49.6839 2.84205 50 3.6377 50H19.6377C20.4333 50 21.1964 49.6839 21.759 49.1213C22.3216 48.5587 22.6377 47.7957 22.6377 47V9C22.6377 8.20435 22.3216 7.44129 21.759 6.87868C21.1964 6.31607 20.4333 6 19.6377 6ZM21.6377 47C21.6371 47.5302 21.4262 48.0386 21.0512 48.4135C20.6763 48.7885 20.1679 48.9994 19.6377 49H3.6377C3.10745 48.9994 2.59909 48.7885 2.22415 48.4135C1.84921 48.0386 1.6383 47.5302 1.6377 47V9C1.6383 8.46975 1.84921 7.9614 2.22415 7.58646C2.59909 7.21152 3.10745 7.00061 3.6377 7H6.2627C6.38771 6.99565 6.50935 7.04105 6.60094 7.12625C6.69254 7.21145 6.74661 7.3295 6.7513 7.4545V8.0709C6.75971 8.32302 6.86689 8.56174 7.04972 8.73555C7.23254 8.90936 7.47637 9.00434 7.7286 9H15.5468C15.799 9.00434 16.0428 8.90936 16.2257 8.73555C16.4085 8.56174 16.5157 8.32302 16.5241 8.0709V7.4545C16.5288 7.3295 16.5829 7.21145 16.6744 7.12625C16.766 7.04105 16.8877 6.99565 17.0127 7H19.6377C20.1679 7.00061 20.6763 7.21152 21.0512 7.58646C21.4262 7.9614 21.6371 8.46975 21.6377 9V47ZM14.3907 7.5057C14.3899 7.57005 14.3702 7.63274 14.3339 7.68588C14.2976 7.73902 14.2464 7.78024 14.1867 7.80435C14.127 7.82845 14.0616 7.83437 13.9986 7.82136C13.9355 7.80835 13.8778 7.77699 13.8325 7.73122C13.7873 7.68545 13.7566 7.62732 13.7443 7.56415C13.732 7.50098 13.7387 7.43559 13.7635 7.37621C13.7883 7.31682 13.8301 7.2661 13.8837 7.23042C13.9372 7.19474 14.0001 7.1757 14.0645 7.1757C14.1076 7.17595 14.1502 7.18468 14.1899 7.2014C14.2296 7.21812 14.2657 7.2425 14.2959 7.27314C14.3262 7.30378 14.3502 7.34009 14.3664 7.38C14.3827 7.4199 14.3909 7.46261 14.3907 7.5057ZM13.244 7.5057C13.2442 7.53834 13.238 7.5707 13.2256 7.60093C13.2133 7.63117 13.1952 7.65868 13.1722 7.68189C13.1493 7.70511 13.122 7.72358 13.0919 7.73624C13.0618 7.7489 13.0295 7.75552 12.9969 7.7557H11.0199C10.9536 7.7557 10.89 7.72936 10.8431 7.68248C10.7962 7.63559 10.7699 7.572 10.7699 7.5057C10.7699 7.4394 10.7962 7.37581 10.8431 7.32892C10.89 7.28204 10.9536 7.2557 11.0199 7.2557H12.9969C13.0628 7.2561 13.1259 7.28266 13.1722 7.32954C13.2185 7.37642 13.2444 7.43978 13.244 7.5057Z" fill="#1D1D1F"/>
</g>
<defs>
<clipPath id="clip0_2_3329">
<rect width="22" height="54" fill="white" transform="translate(0.637695)"/>
</clipPath>
</defs>
</svg>
