<svg width="41" height="54" viewBox="0 0 41 54" fill="none" xmlns="http://www.w3.org/2000/svg">
<g id="iphone_14_pro_light__dfhcc00ur2oi_large.svg" clip-path="url(#clip0_2_3302)">
<path id="Vector" d="M16.8573 50.0003H6.23202H5.86202C5.76362 50.0003 5.66585 50 5.56872 49.9993C5.05735 50.0084 4.54623 49.9701 4.04192 49.885C3.69681 49.8202 3.36249 49.7074 3.04872 49.5498C2.42602 49.2339 1.92005 48.728 1.60412 48.1053C1.44648 47.7916 1.33371 47.4573 1.26912 47.1122C1.1785 46.5592 1.13993 45.999 1.15392 45.4388V45.1455C1.15392 45.0714 1.15392 44.9967 1.15392 44.9216V12.079C1.15392 12.0038 1.15392 11.9292 1.15392 11.8551C1.15392 11.7566 1.15392 11.6588 1.15392 11.5618C1.13993 11.0016 1.1785 10.4414 1.26912 9.88841C1.33373 9.54332 1.4465 9.20902 1.60412 8.89531C1.92001 8.27275 2.42586 7.7669 3.04842 7.45101C3.36219 7.29341 3.69651 7.18058 4.04162 7.11581C4.39597 7.05129 4.75499 7.01567 5.11512 7.00931C5.37732 7.00121 5.70692 7.00031 6.00572 7.00031H6.23202H15.1046C15.0992 7.18951 15.0914 7.37771 15.0907 7.56931V7.72151V7.86431V8.00031H6.23202H6.12342H6.00572C5.71742 8.00031 5.39902 8.00091 5.14572 8.00881C4.83971 8.01332 4.53459 8.04292 4.23342 8.09731C3.97949 8.14419 3.73343 8.22663 3.50252 8.34221C3.06801 8.56211 2.71505 8.91497 2.49502 9.34941C2.37966 9.58005 2.29738 9.8258 2.25062 10.0794C2.17278 10.5705 2.14041 11.0678 2.15392 11.5649V11.8549V12.0788V44.9216V45.1421V45.438C2.14048 45.934 2.17285 46.4302 2.25062 46.9203C2.29729 47.1743 2.37964 47.4205 2.49522 47.6514C2.715 48.0859 3.06786 48.4387 3.50232 48.6585C3.73325 48.774 3.9793 48.8564 4.23322 48.9033C4.67684 48.9757 5.12611 49.0077 5.57552 48.9991L5.86262 49.0003H6.23202H15.9234C16.1691 49.3893 16.4858 49.7285 16.857 50.0003H16.8573ZM13.7398 8.58661C13.9821 8.58661 14.2145 8.68287 14.3859 8.85422C14.5573 9.02558 14.6535 9.25798 14.6535 9.50031C14.6535 9.74264 14.5573 9.97504 14.3859 10.1464C14.2145 10.3177 13.9821 10.414 13.7398 10.414H9.56722C9.32489 10.414 9.09249 10.3177 8.92113 10.1464C8.74978 9.97504 8.65352 9.74264 8.65352 9.50031C8.65352 9.25798 8.74978 9.02558 8.92113 8.85422C9.09249 8.68287 9.32489 8.58661 9.56722 8.58661H13.7398ZM13.7921 9.05031C13.7031 9.05031 13.6161 9.0767 13.5421 9.12615C13.4681 9.17559 13.4104 9.24587 13.3764 9.3281C13.3423 9.41033 13.3334 9.50081 13.3508 9.5881C13.3681 9.67539 13.411 9.75557 13.4739 9.81851C13.5369 9.88144 13.617 9.9243 13.7043 9.94166C13.7916 9.95903 13.8821 9.95011 13.9643 9.91605C14.0466 9.88199 14.1168 9.82432 14.1663 9.75032C14.2157 9.67631 14.2421 9.58931 14.2421 9.50031C14.2421 9.38096 14.1947 9.2665 14.1103 9.18211C14.0259 9.09772 13.9115 9.05031 13.7921 9.05031ZM30.6534 5.50031C30.6534 5.74261 30.5571 5.97498 30.3858 6.14633C30.2145 6.31767 29.9821 6.41396 29.7398 6.41401H25.5672C25.3249 6.41401 25.0925 6.31774 24.9211 6.14639C24.7498 5.97504 24.6535 5.74264 24.6535 5.50031C24.6535 5.25798 24.7498 5.02558 24.9211 4.85422C25.0925 4.68287 25.3249 4.58661 25.5672 4.58661H29.7398C29.9821 4.58663 30.2145 4.68291 30.3858 4.85426C30.5572 5.02561 30.6534 5.258 30.6534 5.50031ZM30.2418 5.50031C30.2418 5.41131 30.2154 5.3243 30.166 5.2503C30.1165 5.1763 30.0463 5.11862 29.964 5.08456C29.8818 5.0505 29.7913 5.04159 29.704 5.05895C29.6167 5.07632 29.5366 5.11918 29.4736 5.18211C29.4107 5.24504 29.3678 5.32523 29.3505 5.41252C29.3331 5.49981 29.342 5.59029 29.3761 5.67252C29.4101 5.75474 29.4678 5.82502 29.5418 5.87447C29.6158 5.92392 29.7028 5.95031 29.7918 5.95031C29.9112 5.95031 30.0256 5.9029 30.11 5.81851C30.1944 5.73412 30.2418 5.61966 30.2418 5.50031ZM39.1534 7.86691V45.1337C39.1534 45.2325 39.1534 45.3304 39.1529 45.4277C39.1671 45.9892 39.1285 46.5509 39.0377 47.1052C38.9727 47.4511 38.8595 47.7861 38.7015 48.1006C38.385 48.7249 37.8778 49.2321 37.2534 49.5485C36.939 49.7065 36.604 49.8197 36.2581 49.8845C35.9029 49.9492 35.5429 49.9849 35.1819 49.9913C34.9197 49.9994 34.5901 50.0003 34.2913 50.0003H34.062H21.2445H20.8734C20.7747 50.0003 20.6767 50 20.5794 49.9993C20.156 49.9997 19.733 49.9721 19.3131 49.9169C19.2254 49.9046 19.1353 49.9015 19.0489 49.8847C18.7031 49.8199 18.368 49.7067 18.0536 49.5487C17.7723 49.4038 17.5132 49.2191 17.2845 49.0003C17.2618 48.979 17.2357 48.962 17.2137 48.9403C16.968 48.6943 16.7627 48.411 16.6053 48.101C16.4473 47.7865 16.3341 47.4515 16.2691 47.1056C16.1782 46.5512 16.1394 45.9894 16.1534 45.4277C16.1534 45.3304 16.1534 45.2325 16.1534 45.1337V7.86691C16.1534 7.76801 16.1534 7.67011 16.1534 7.57281C16.1541 7.38101 16.1607 7.19091 16.1661 7.00041C16.1703 6.62987 16.2046 6.26029 16.2686 5.89531C16.3338 5.54955 16.4472 5.21462 16.6053 4.90031C16.9216 4.27578 17.4289 3.76845 18.0534 3.45211C18.3678 3.29407 18.7029 3.18096 19.0487 3.11611C19.404 3.0514 19.7639 3.01569 20.1249 3.00931C20.3871 3.00121 20.7167 3.00031 21.0155 3.00031H21.2448H34.0623H34.2491H34.4334C34.532 3.00031 34.6299 3.00031 34.7276 3.00131C35.2401 2.99221 35.7522 3.03057 36.2576 3.11591C36.6035 3.18077 36.9385 3.29387 37.2529 3.45191C37.8776 3.76822 38.3851 4.27563 38.7015 4.90031C38.8595 5.21475 38.9727 5.54977 39.0377 5.89561C39.1286 6.44983 39.1674 7.01135 39.1534 7.57281V7.86691ZM38.1534 7.86691V7.71811V7.57531C38.167 7.07732 38.1346 6.57915 38.0567 6.08711C38.0096 5.83243 37.927 5.58565 37.8111 5.35401C37.5905 4.91789 37.2363 4.56369 36.8001 4.34311C36.5686 4.22727 36.3218 4.14463 36.0672 4.09761C35.6225 4.02502 35.1721 3.99285 34.7215 4.00151L34.4327 4.00031H34.2491H34.1566H21.2445H21.1345H21.0156C20.727 4.00031 20.4089 4.00101 20.1556 4.00881C19.8485 4.01327 19.5423 4.04297 19.2401 4.09761C18.9854 4.14466 18.7386 4.22734 18.5069 4.34321C18.071 4.5635 17.7169 4.91739 17.4964 5.35321C17.3804 5.58508 17.2977 5.83214 17.2506 6.08711C17.1985 6.38881 17.1702 6.69416 17.1661 7.00031C17.1602 7.18731 17.1546 7.37351 17.1539 7.57611V7.72401V7.86921V45.1337V45.2765V45.4252C17.1404 45.9232 17.1727 46.4213 17.2506 46.9133C17.2977 47.168 17.3804 47.4149 17.4962 47.6466C17.7167 48.0826 18.0708 48.4367 18.5067 48.6573C18.7384 48.7732 18.9853 48.8559 19.2401 48.903C19.2594 48.9068 19.2808 48.9066 19.3001 48.9101C19.7254 48.9752 20.1553 49.0049 20.5855 48.9991L20.8736 49.0001H21.2442H34.1727H34.2916C34.5802 49.0001 34.8983 48.9994 35.1516 48.9916C35.4587 48.987 35.7649 48.9573 36.0671 48.9028C36.3218 48.8558 36.5687 48.7731 36.8003 48.6572C37.236 48.4365 37.5898 48.0824 37.8103 47.6466C37.9263 47.4148 38.0091 47.1677 38.0561 46.9128C38.1342 46.4207 38.1668 45.9224 38.1534 45.4243V45.2825V45.1312V7.86691Z" fill="#1D1D1F"/>
</g>
<defs>
<clipPath id="clip0_2_3302">
<rect width="40" height="54" fill="white" transform="translate(0.15332)"/>
</clipPath>
</defs>
</svg>
