<svg width="20" height="54" viewBox="0 0 20 54" fill="none" xmlns="http://www.w3.org/2000/svg">
<g id="iphone_se_light__fhg8duy6ffau_large.svg" clip-path="url(#clip0_2_3322)">
<path id="Vector" d="M16.0283 10H3.02832C2.2334 10.0024 1.47172 10.3192 0.909623 10.8813C0.347527 11.4434 0.0306944 12.2051 0.0283203 13L0.0283203 47C0.0306944 47.7949 0.347527 48.5566 0.909623 49.1187C1.47172 49.6808 2.2334 49.9976 3.02832 50H16.0283C16.8232 49.9976 17.5849 49.6808 18.147 49.1187C18.7091 48.5566 19.0259 47.7949 19.0283 47V13C19.0259 12.2051 18.7091 11.4434 18.147 10.8813C17.5849 10.3192 16.8232 10.0024 16.0283 10ZM7.27832 12.25H11.7783C11.8446 12.25 11.9082 12.2763 11.9551 12.3232C12.002 12.3701 12.0283 12.4337 12.0283 12.5C12.0283 12.5663 12.002 12.6299 11.9551 12.6768C11.9082 12.7237 11.8446 12.75 11.7783 12.75H7.27832C7.21202 12.75 7.14843 12.7237 7.10154 12.6768C7.05466 12.6299 7.02832 12.5663 7.02832 12.5C7.02832 12.4337 7.05466 12.3701 7.10154 12.3232C7.14843 12.2763 7.21202 12.25 7.27832 12.25ZM5.52832 12.125C5.60249 12.125 5.67499 12.147 5.73666 12.1882C5.79833 12.2294 5.84639 12.288 5.87477 12.3565C5.90316 12.425 5.91058 12.5004 5.89611 12.5732C5.88165 12.6459 5.84593 12.7127 5.79349 12.7652C5.74104 12.8176 5.67422 12.8533 5.60148 12.8678C5.52874 12.8823 5.45334 12.8748 5.38481 12.8465C5.31629 12.8181 5.25772 12.77 5.21652 12.7083C5.17531 12.6467 5.15332 12.5742 5.15332 12.5C5.15332 12.4005 5.19283 12.3052 5.26316 12.2348C5.33348 12.1645 5.42886 12.125 5.52832 12.125ZM9.52832 49.25C9.1822 49.25 8.84386 49.1474 8.55607 48.9551C8.26829 48.7628 8.04398 48.4895 7.91153 48.1697C7.77908 47.8499 7.74442 47.4981 7.81195 47.1586C7.87947 46.8191 8.04614 46.5073 8.29088 46.2626C8.53562 46.0178 8.84745 45.8512 9.18691 45.7836C9.52638 45.7161 9.87825 45.7508 10.198 45.8832C10.5178 46.0157 10.7911 46.24 10.9834 46.5278C11.1757 46.8155 11.2783 47.1539 11.2783 47.5C11.2783 47.9641 11.0939 48.4092 10.7658 48.7374C10.4376 49.0656 9.99245 49.25 9.52832 49.25ZM18.0283 45H1.02832V15H18.0283V45Z" fill="#1D1D1F"/>
<path id="Vector_2" d="M9.52832 48.625C10.1496 48.625 10.6533 48.1213 10.6533 47.5C10.6533 46.8787 10.1496 46.375 9.52832 46.375C8.907 46.375 8.40332 46.8787 8.40332 47.5C8.40332 48.1213 8.907 48.625 9.52832 48.625Z" fill="#1D1D1F"/>
</g>
<defs>
<clipPath id="clip0_2_3322">
<rect width="19" height="54" fill="white" transform="translate(0.0283203)"/>
</clipPath>
</defs>
</svg>
