<svg width="36" height="54" viewBox="0 0 36 54" fill="none" xmlns="http://www.w3.org/2000/svg">
<g id="iphone_apple_card_light__dtut839e76c2_large.svg" clip-path="url(#clip0_2_3360)">
<g id="Group">
<g id="Group_2">
<path id="Vector" d="M32.4658 24H4.46582C2.25582 24 0.46582 25.79 0.46582 28V46C0.46582 48.21 2.25582 50 4.46582 50H32.4658C34.6758 50 36.4658 48.21 36.4658 46V28C36.4658 25.79 34.6758 24 32.4658 24ZM7.75582 27.45C8.02582 27.13 8.43582 26.92 8.80582 26.92C8.82582 27.34 8.70582 27.71 8.43582 28.01C8.19582 28.33 7.76582 28.62 7.38582 28.57C7.29582 28.15 7.53582 27.72 7.75582 27.45ZM9.79582 33.15C9.50582 33.59 9.16582 34.08 8.67582 34.08C8.21582 34.08 8.03582 33.77 7.49582 33.77C6.92582 33.77 6.75582 34.08 6.31582 34.08C5.82582 34.08 5.50582 33.59 5.19582 33.15C4.79582 32.58 4.46582 31.65 4.45582 30.79C4.44582 30.33 4.54582 29.93 4.76582 29.55C5.07582 29.02 5.64582 28.63 6.25582 28.62C6.72582 28.6 7.14582 28.93 7.43582 28.93C7.70582 28.93 8.22582 28.63 8.79582 28.62C9.16582 28.61 9.68582 28.73 10.0958 29.36C10.0658 29.38 9.28582 29.78 9.28582 30.71C9.32582 31.77 10.2658 32.15 10.2758 32.15C10.2758 32.18 10.1558 32.64 9.79582 33.15Z" fill="#1D1D1F"/>
</g>
</g>
</g>
<defs>
<clipPath id="clip0_2_3360">
<rect width="36" height="54" fill="white" transform="translate(0.46582)"/>
</clipPath>
</defs>
</svg>
