<svg width="37" height="54" viewBox="0 0 37 54" fill="none" xmlns="http://www.w3.org/2000/svg">
<g id="iphone_13_light__ewo3e0sf67o2_large.svg" clip-path="url(#clip0_2_3316)">
<path id="Vector" d="M14.342 49.5004C14.208 49.3433 14.0863 49.1761 13.9778 49.0004H4.48387C4.40437 49.0004 4.10827 49.0004 4.02387 49.0004C3.57948 49.0177 3.13465 48.9799 2.69957 48.8877C2.36434 48.8073 2.05917 48.6325 1.82017 48.384C1.58235 48.1291 1.42076 47.8126 1.35377 47.4704C1.2763 47.0207 1.24581 46.5642 1.26277 46.1082V15.2917C1.26277 15.1951 1.26277 14.9791 1.26277 14.8798C1.24217 14.4002 1.27926 13.9199 1.37327 13.4491C1.45672 13.0883 1.64978 12.762 1.92597 12.5152C2.06861 12.3892 2.23071 12.2871 2.40597 12.2129C2.5797 12.1407 2.76162 12.09 2.94767 12.062C3.18325 12.0267 3.42098 12.0077 3.65917 12.005C3.81717 12.0012 4.00107 12.0006 4.17717 12.0006H5.46007C5.50944 11.9984 5.5589 12.0009 5.60777 12.0082C5.65641 12.0144 5.70169 12.0363 5.73672 12.0706C5.77175 12.1049 5.79459 12.1497 5.80177 12.1982C5.81287 12.2507 5.81177 12.5618 5.81337 12.6082C5.81344 12.7194 5.82196 12.8304 5.83887 12.9402C5.85751 13.0487 5.89472 13.1532 5.94887 13.249C6.03582 13.4008 6.16123 13.527 6.31247 13.6149C6.43037 13.6818 6.56052 13.7243 6.69517 13.7398C6.8309 13.7533 6.96737 13.7576 7.10367 13.7528H12.5283C12.7794 13.7793 13.033 13.7381 13.2628 13.6335V11.0004H4.48437H4.19897C4.00807 11.0004 3.80697 11.0011 3.63487 11.0053C3.35118 11.0094 3.06809 11.0328 2.78757 11.0753C2.52179 11.1163 2.26201 11.1896 2.01397 11.2935C1.73968 11.4096 1.486 11.5694 1.26277 11.7666C0.837317 12.1465 0.5378 12.647 0.404173 13.2015C0.287124 13.7573 0.239626 14.3255 0.262773 14.893V15.2917V46.1082C0.244521 46.6365 0.282907 47.1653 0.377273 47.6854C0.483342 48.2057 0.732085 48.6862 1.09567 49.0732C1.46325 49.4559 1.93152 49.7269 2.44647 49.8548C2.9626 49.9693 3.4911 50.0182 4.01947 50.0004C4.11217 50.0004 4.38827 50.0009 4.48437 50.0004H14.8428C14.7046 49.8878 14.574 49.7661 14.4518 49.6363C14.4121 49.5934 14.3799 49.5447 14.342 49.5004ZM6.96117 13.0367C6.8865 13.0421 6.81179 13.0267 6.74534 12.9923C6.6789 12.9578 6.62331 12.9055 6.58477 12.8413C6.55204 12.7811 6.53489 12.7136 6.53489 12.6451C6.53489 12.5765 6.55204 12.5091 6.58477 12.4488C6.62334 12.3847 6.67893 12.3326 6.74536 12.2982C6.81179 12.2637 6.88646 12.2484 6.96107 12.2539C7.05858 12.263 7.14919 12.3082 7.21514 12.3806C7.2811 12.453 7.31765 12.5474 7.31765 12.6453C7.31765 12.7433 7.2811 12.8377 7.21514 12.9101C7.14919 12.9825 7.05858 13.0276 6.96107 13.0367H6.96117ZM8.19917 11.3767H11.2862C11.3192 11.3768 11.3508 11.3899 11.3742 11.4132C11.3975 11.4365 11.4108 11.468 11.4111 11.501V11.5019V11.5204C11.411 11.5537 11.3978 11.5855 11.3743 11.609C11.3509 11.6325 11.319 11.6457 11.2858 11.6457H8.19917C8.16596 11.6457 8.13411 11.6325 8.11064 11.609C8.08716 11.5855 8.07397 11.5536 8.07397 11.5204V11.5015V11.5005C8.07426 11.4675 8.08758 11.436 8.11103 11.4127C8.13448 11.3895 8.16616 11.3764 8.19917 11.3764V11.3767ZM36.2628 10.392C36.2831 9.7959 36.2407 9.19929 36.1363 8.61203C36.0202 8.02747 35.7457 7.48605 35.3428 7.04693C34.9393 6.6167 34.4212 6.31073 33.8497 6.16503C33.2796 6.03604 32.6953 5.98096 32.1112 6.00113C32.0006 6.00066 31.8894 6.00043 31.7775 6.00043H18.9288H18.6141C18.4028 6.00043 18.1803 6.00123 17.9899 6.00603C17.6762 6.01042 17.3633 6.03665 17.0533 6.08453C16.7592 6.13085 16.472 6.21352 16.1983 6.33063C15.8944 6.46239 15.6141 6.64282 15.3683 6.86483C14.8963 7.29667 14.5655 7.8609 14.4194 8.48373C14.2898 9.11111 14.2373 9.75193 14.2628 10.392V12.0006V45.6091C14.2425 46.2051 14.2848 46.8015 14.3892 47.3885C14.5053 47.9733 14.78 48.515 15.1832 48.9542C15.199 48.971 15.2171 48.9842 15.2332 49.0003C15.4171 49.1905 15.6253 49.3556 15.8524 49.4914C16.1099 49.6437 16.3872 49.7597 16.6765 49.8361C16.7696 49.8609 16.8654 49.8634 16.9594 49.8812C17.4399 49.9653 17.9272 50.0052 18.415 50.0004C18.5842 50.001 18.758 50.001 18.9288 50.0004H31.9667C32.5624 50.0229 33.1588 49.9766 33.7439 49.8623C34.3316 49.7323 34.8693 49.4353 35.2924 49.0071C35.7141 48.5686 36.0037 48.0202 36.1282 47.4247C36.2397 46.8263 36.2849 46.2174 36.2628 45.6091V10.8419C36.2628 10.6914 36.2628 10.5397 36.2628 10.392ZM23.604 6.51203C23.604 6.47755 23.6177 6.44448 23.642 6.4201C23.6664 6.39573 23.6995 6.38203 23.734 6.38203H26.7926C26.8271 6.38203 26.8601 6.39573 26.8845 6.4201C26.9089 6.44448 26.9226 6.47755 26.9226 6.51203V6.53203C26.9226 6.56651 26.9089 6.59957 26.8845 6.62395C26.8601 6.64833 26.8271 6.66203 26.7926 6.66203H23.7335C23.699 6.66203 23.6659 6.64833 23.6416 6.62395C23.6172 6.59957 23.6035 6.56651 23.6035 6.53203L23.604 6.51203ZM22.0326 7.34503C22.0729 7.27798 22.1311 7.22344 22.2006 7.18746C22.27 7.15149 22.3481 7.13548 22.4262 7.14123C22.5282 7.15067 22.623 7.19788 22.6921 7.27361C22.7611 7.34933 22.7994 7.44811 22.7994 7.55058C22.7994 7.65305 22.7611 7.75183 22.6921 7.82755C22.623 7.90327 22.5282 7.95048 22.4262 7.95993C22.3481 7.96559 22.27 7.9495 22.2005 7.91343C22.131 7.87736 22.0729 7.82274 22.0326 7.75563C21.9983 7.69255 21.9804 7.62189 21.9804 7.5501C21.9804 7.47831 21.9984 7.40767 22.0328 7.34463L22.0326 7.34503ZM35.2628 10.7669V24.4757V45.6285C35.2827 46.1562 35.2458 46.6844 35.1528 47.2041C35.0697 47.6192 34.8701 48.002 34.5774 48.3078C34.2869 48.601 33.9173 48.803 33.5137 48.8891C33.0038 48.9839 32.4849 49.0212 31.9667 49.0004H18.9275C18.7861 49.0004 18.562 49.0004 18.4192 49.0004C18.1743 48.9993 17.9553 48.9931 17.7421 48.9814C17.4697 48.9721 17.1989 48.9349 16.9341 48.8703C16.9198 48.8666 16.9089 48.8582 16.8948 48.8542C16.5208 48.7542 16.1817 48.553 15.9148 48.2726C15.6345 47.9654 15.4448 47.5864 15.3669 47.1778C15.2786 46.6599 15.2437 46.1342 15.2628 45.6091V12.0004C15.2628 11.4863 15.2628 10.8904 15.2628 10.3768C15.2395 9.82376 15.2819 9.26988 15.3893 8.72683C15.488 8.29662 15.7144 7.90624 16.0387 7.60683C16.2042 7.45755 16.3929 7.33623 16.5975 7.24763C16.796 7.16333 17.0043 7.10408 17.2175 7.07123C17.4815 7.03073 17.7481 7.00891 18.0153 7.00593C18.198 7.00133 18.4116 7.00063 18.6143 7.00063H18.7799H18.929H20.8797C20.9348 6.99814 20.9899 7.00099 21.0445 7.00913C21.0987 7.01599 21.1493 7.04039 21.1884 7.07863C21.2275 7.11687 21.253 7.16684 21.2611 7.22093C21.2704 7.27535 21.2747 7.33052 21.274 7.38573C21.274 7.5096 21.2835 7.63329 21.3024 7.75573C21.3233 7.87684 21.365 7.99343 21.4257 8.10033C21.5227 8.26973 21.6626 8.41057 21.8314 8.50863C21.963 8.58326 22.1082 8.63067 22.2585 8.64803C22.4099 8.66304 22.5623 8.66792 22.7144 8.66263H27.8116C27.9637 8.66792 28.1161 8.66304 28.2676 8.64803C28.4178 8.63065 28.5631 8.58324 28.6947 8.50863C28.8634 8.41057 29.0032 8.26977 29.1002 8.10043C29.1608 7.99352 29.2025 7.87694 29.2234 7.75583C29.2422 7.6334 29.2518 7.50971 29.2519 7.38583C29.251 7.33061 29.2554 7.27544 29.2648 7.22103C29.2728 7.16695 29.2984 7.11699 29.3374 7.07876C29.3765 7.04052 29.427 7.01611 29.4813 7.00923C29.5358 7.00099 29.5911 6.99805 29.6462 7.00043H31.7775H32.1063C32.6048 6.98086 33.1039 7.02454 33.5915 7.13043C33.9815 7.22849 34.3353 7.43589 34.6115 7.72823C34.8917 8.03548 35.0813 8.41442 35.1592 8.82293C35.2475 9.34132 35.2824 9.86741 35.2632 10.3929C35.2628 10.4604 35.2628 10.7044 35.2628 10.7669Z" fill="#1D1D1F"/>
</g>
<defs>
<clipPath id="clip0_2_3316">
<rect width="36" height="54" fill="white" transform="translate(0.262695)"/>
</clipPath>
</defs>
</svg>
