<svg width="16" height="44" viewBox="0 0 14 44" fill="none" xmlns="http://www.w3.org/2000/svg">
<g id="globalnav_search_image__cbllq1gkias2_large.svg" clip-path="url(#clip0_2_3434)">
<path id="Vector" d="M14.1989 27.3428L10.6989 23.8428C11.5806 22.763 12.0138 21.3857 11.9088 19.9956C11.8039 18.6055 11.1689 17.3088 10.1351 16.3736C9.10132 15.4383 7.74772 14.936 6.35408 14.9704C4.96044 15.0048 3.63328 15.5733 2.64689 16.5584C1.6605 17.5436 1.09028 18.87 1.05408 20.2636C1.01788 21.6572 1.51847 23.0114 2.45238 24.0464C3.38629 25.0814 4.68214 25.7181 6.07212 25.8248C7.4621 25.9315 8.83995 25.5001 9.92091 24.6198L13.4209 28.1198C13.472 28.1709 13.5326 28.2114 13.5994 28.2391C13.6661 28.2667 13.7377 28.281 13.8099 28.281C13.8822 28.281 13.9537 28.2667 14.0204 28.2391C14.0872 28.2114 14.1478 28.1709 14.1989 28.1198C14.25 28.0687 14.2905 28.0081 14.3182 27.9414C14.3458 27.8746 14.36 27.8031 14.36 27.7308C14.36 27.6586 14.3458 27.5871 14.3182 27.5203C14.2905 27.4536 14.25 27.3929 14.1989 27.3418V27.3428ZM2.17791 20.4178C2.17811 19.5637 2.43158 18.7287 2.90628 18.0186C3.38098 17.3085 4.05558 16.7551 4.84479 16.4283C5.63401 16.1016 6.50238 16.0162 7.34012 16.1829C8.17786 16.3497 8.94734 16.7611 9.55126 17.3652C10.1552 17.9693 10.5664 18.7388 10.733 19.5766C10.8996 20.4144 10.814 21.2827 10.4871 22.0719C10.1601 22.861 9.60655 23.5355 8.89632 24.01C8.18608 24.4846 7.35109 24.7378 6.49691 24.7378C5.35159 24.7368 4.2535 24.2813 3.44373 23.4713C2.63397 22.6613 2.17871 21.5632 2.17791 20.4178Z" fill="white"/>
</g>
<defs>
<clipPath id="clip0_2_3434">
<rect width="15" height="44" fill="white" transform="translate(0.21875)"/>
</clipPath>
</defs>
</svg>
